<mxfile host="app.diagrams.net" modified="2020-12-29T14:07:28.226Z" agent="5.0 (Windows NT 10.0; Win64; x64) AppleWebKit/537.36 (KHTML, like Gecko) Chrome/87.0.4280.88 Safari/537.36" etag="aAJM20CNE5H3AZOr3JVJ" version="14.1.2" type="github">
  <diagram name="Page-1" id="13e1069c-82ec-6db2-03f1-153e76fe0fe0">
    <mxGraphModel dx="1422" dy="762" grid="1" gridSize="10" guides="1" tooltips="1" connect="1" arrows="1" fold="1" page="1" pageScale="1" pageWidth="1100" pageHeight="850" background="#ffffff" math="0" shadow="0">
      <root>
        <mxCell id="0" />
        <mxCell id="1" parent="0" />
        <mxCell id="7baba1c4bc27f4b0-3" value="Game" style="shape=umlLifeline;perimeter=lifelinePerimeter;whiteSpace=wrap;html=1;container=1;collapsible=0;recursiveResize=0;outlineConnect=0;rounded=1;shadow=0;comic=0;labelBackgroundColor=none;strokeWidth=1;fontFamily=Verdana;fontSize=12;align=center;" parent="1" vertex="1">
          <mxGeometry x="310" y="80" width="90" height="770" as="geometry" />
        </mxCell>
        <mxCell id="7YiKMo0v-y7mLt2C8tXS-64" value="" style="html=1;points=[];perimeter=orthogonalPerimeter;rounded=0;shadow=0;comic=0;labelBackgroundColor=none;strokeWidth=1;fontFamily=Verdana;fontSize=12;align=center;" parent="7baba1c4bc27f4b0-3" vertex="1">
          <mxGeometry x="40" y="620" width="10" height="90" as="geometry" />
        </mxCell>
        <mxCell id="7baba1c4bc27f4b0-4" value="PAAS SDK" style="shape=umlLifeline;perimeter=lifelinePerimeter;whiteSpace=wrap;html=1;container=1;collapsible=0;recursiveResize=0;outlineConnect=0;rounded=1;shadow=0;comic=0;labelBackgroundColor=none;strokeWidth=1;fontFamily=Verdana;fontSize=12;align=center;" parent="1" vertex="1">
          <mxGeometry x="720" y="80" width="90" height="770" as="geometry" />
        </mxCell>
        <mxCell id="7YiKMo0v-y7mLt2C8tXS-27" value="" style="html=1;points=[];perimeter=orthogonalPerimeter;rounded=0;shadow=0;comic=0;labelBackgroundColor=none;strokeWidth=1;fontFamily=Verdana;fontSize=12;align=center;" parent="7baba1c4bc27f4b0-4" vertex="1">
          <mxGeometry x="40" y="200" width="10" height="180" as="geometry" />
        </mxCell>
        <mxCell id="V6cwjawZBJKuY5wKBzn6-4" value="" style="endArrow=classic;html=1;entryX=0;entryY=0.757;entryDx=0;entryDy=0;entryPerimeter=0;" edge="1" parent="7baba1c4bc27f4b0-4" target="7YiKMo0v-y7mLt2C8tXS-12">
          <mxGeometry width="50" height="50" relative="1" as="geometry">
            <mxPoint x="50" y="302" as="sourcePoint" />
            <mxPoint x="220" y="302" as="targetPoint" />
          </mxGeometry>
        </mxCell>
        <mxCell id="7baba1c4bc27f4b0-5" value="PAAS SERVER" style="shape=umlLifeline;perimeter=lifelinePerimeter;whiteSpace=wrap;html=1;container=1;collapsible=0;recursiveResize=0;outlineConnect=0;rounded=1;shadow=0;comic=0;labelBackgroundColor=none;strokeWidth=1;fontFamily=Verdana;fontSize=12;align=center;" parent="1" vertex="1">
          <mxGeometry x="910" y="90" width="90" height="770" as="geometry" />
        </mxCell>
        <mxCell id="7baba1c4bc27f4b0-19" value="" style="html=1;points=[];perimeter=orthogonalPerimeter;rounded=0;shadow=0;comic=0;labelBackgroundColor=none;strokeWidth=1;fontFamily=Verdana;fontSize=12;align=center;" parent="7baba1c4bc27f4b0-5" vertex="1">
          <mxGeometry x="46" y="398" width="10" height="120" as="geometry" />
        </mxCell>
        <mxCell id="7YiKMo0v-y7mLt2C8tXS-12" value="" style="html=1;points=[];perimeter=orthogonalPerimeter;rounded=0;shadow=0;comic=0;labelBackgroundColor=none;strokeWidth=1;fontFamily=Verdana;fontSize=12;align=center;" parent="7baba1c4bc27f4b0-5" vertex="1">
          <mxGeometry x="40" y="80" width="10" height="280" as="geometry" />
        </mxCell>
        <mxCell id="7YiKMo0v-y7mLt2C8tXS-46" value="" style="html=1;points=[];perimeter=orthogonalPerimeter;rounded=0;shadow=0;comic=0;labelBackgroundColor=none;strokeWidth=1;fontFamily=Verdana;fontSize=12;align=center;" parent="7baba1c4bc27f4b0-5" vertex="1">
          <mxGeometry x="40" y="560" width="10" height="200" as="geometry" />
        </mxCell>
        <mxCell id="7baba1c4bc27f4b0-8" value="App" style="shape=umlLifeline;perimeter=lifelinePerimeter;whiteSpace=wrap;html=1;container=1;collapsible=0;recursiveResize=0;outlineConnect=0;rounded=1;shadow=0;comic=0;labelBackgroundColor=none;strokeWidth=1;fontFamily=Verdana;fontSize=12;align=center;" parent="1" vertex="1">
          <mxGeometry x="100" y="80" width="90" height="760" as="geometry" />
        </mxCell>
        <mxCell id="7baba1c4bc27f4b0-9" value="" style="html=1;points=[];perimeter=orthogonalPerimeter;rounded=0;shadow=0;comic=0;labelBackgroundColor=none;strokeWidth=1;fontFamily=Verdana;fontSize=12;align=center;" parent="7baba1c4bc27f4b0-8" vertex="1">
          <mxGeometry x="40" y="60" width="10" height="260" as="geometry" />
        </mxCell>
        <mxCell id="7YiKMo0v-y7mLt2C8tXS-28" value="" style="html=1;points=[];perimeter=orthogonalPerimeter;rounded=0;shadow=0;comic=0;labelBackgroundColor=none;strokeWidth=1;fontFamily=Verdana;fontSize=12;align=center;" parent="7baba1c4bc27f4b0-8" vertex="1">
          <mxGeometry x="46" y="398" width="10" height="120" as="geometry" />
        </mxCell>
        <mxCell id="7baba1c4bc27f4b0-11" value="客户端选择进入一个已有的全局房间" style="html=1;verticalAlign=bottom;endArrow=block;labelBackgroundColor=none;fontFamily=Verdana;fontSize=12;edgeStyle=elbowEdgeStyle;elbow=vertical;exitX=0.5;exitY=0.068;exitDx=0;exitDy=0;exitPerimeter=0;" parent="1" edge="1">
          <mxGeometry relative="1" as="geometry">
            <mxPoint x="154" y="379.99999999999994" as="sourcePoint" />
            <mxPoint x="754" y="380" as="targetPoint" />
            <Array as="points">
              <mxPoint x="754" y="380" />
              <mxPoint x="279" y="380.08" />
              <mxPoint x="289" y="410.08" />
            </Array>
          </mxGeometry>
        </mxCell>
        <mxCell id="7baba1c4bc27f4b0-40" value="游戏客户端" style="shape=note;whiteSpace=wrap;html=1;size=14;verticalAlign=top;align=left;spacingTop=-6;rounded=0;shadow=0;comic=0;labelBackgroundColor=none;strokeWidth=1;fontFamily=Verdana;fontSize=12" parent="1" vertex="1">
          <mxGeometry x="100" y="30" width="100" height="35" as="geometry" />
        </mxCell>
        <mxCell id="7baba1c4bc27f4b0-42" value="业务游戏服务器" style="shape=note;whiteSpace=wrap;html=1;size=14;verticalAlign=top;align=left;spacingTop=-6;rounded=0;shadow=0;comic=0;labelBackgroundColor=none;strokeWidth=1;fontFamily=Verdana;fontSize=12" parent="1" vertex="1">
          <mxGeometry x="310" y="30" width="100" height="35" as="geometry" />
        </mxCell>
        <mxCell id="7baba1c4bc27f4b0-43" value="PAAS SDK" style="shape=note;whiteSpace=wrap;html=1;size=14;verticalAlign=top;align=left;spacingTop=-6;rounded=0;shadow=0;comic=0;labelBackgroundColor=none;strokeWidth=1;fontFamily=Verdana;fontSize=12" parent="1" vertex="1">
          <mxGeometry x="715" y="30" width="100" height="35" as="geometry" />
        </mxCell>
        <mxCell id="7baba1c4bc27f4b0-44" value="PAAS &lt;br&gt;SERVER" style="shape=note;whiteSpace=wrap;html=1;size=14;verticalAlign=top;align=left;spacingTop=-6;rounded=0;shadow=0;comic=0;labelBackgroundColor=none;strokeWidth=1;fontFamily=Verdana;fontSize=12" parent="1" vertex="1">
          <mxGeometry x="905" y="30" width="100" height="35" as="geometry" />
        </mxCell>
        <mxCell id="7YiKMo0v-y7mLt2C8tXS-29" value="客户端调用PAAS&amp;nbsp;SDK&lt;br&gt;进入选择的房间" style="html=1;verticalAlign=bottom;endArrow=block;labelBackgroundColor=none;fontFamily=Verdana;fontSize=12;edgeStyle=elbowEdgeStyle;elbow=vertical;exitX=0.5;exitY=0.2;exitDx=0;exitDy=0;exitPerimeter=0;" parent="1" edge="1">
          <mxGeometry relative="1" as="geometry">
            <mxPoint x="156" y="502.5" as="sourcePoint" />
            <Array as="points">
              <mxPoint x="500" y="502.5" />
            </Array>
            <mxPoint x="763" y="502.5" as="targetPoint" />
          </mxGeometry>
        </mxCell>
        <mxCell id="7YiKMo0v-y7mLt2C8tXS-31" value="sdk申请进入已有全局房间" style="html=1;verticalAlign=bottom;endArrow=block;labelBackgroundColor=none;fontFamily=Verdana;fontSize=12;edgeStyle=elbowEdgeStyle;elbow=vertical;entryX=0;entryY=0.25;entryDx=0;entryDy=0;entryPerimeter=0;" parent="1" edge="1">
          <mxGeometry x="-0.2222" y="143" relative="1" as="geometry">
            <mxPoint x="776" y="522" as="sourcePoint" />
            <Array as="points">
              <mxPoint x="950" y="522" />
            </Array>
            <mxPoint x="956" y="522" as="targetPoint" />
            <mxPoint as="offset" />
          </mxGeometry>
        </mxCell>
        <mxCell id="7YiKMo0v-y7mLt2C8tXS-32" value="返回进入房间必要信息，&lt;br&gt;客户端渲染房间" style="html=1;verticalAlign=bottom;endArrow=block;labelBackgroundColor=none;fontFamily=Verdana;fontSize=12;" parent="1" edge="1">
          <mxGeometry relative="1" as="geometry">
            <mxPoint x="762" y="585" as="sourcePoint" />
            <mxPoint x="152.5" y="585" as="targetPoint" />
            <Array as="points" />
          </mxGeometry>
        </mxCell>
        <mxCell id="7YiKMo0v-y7mLt2C8tXS-34" value="GlobalRoom" style="shape=umlLifeline;perimeter=lifelinePerimeter;whiteSpace=wrap;html=1;container=1;collapsible=0;recursiveResize=0;outlineConnect=0;rounded=1;shadow=0;comic=0;labelBackgroundColor=none;strokeWidth=1;fontFamily=Verdana;fontSize=12;align=center;" parent="1" vertex="1">
          <mxGeometry x="499" y="80" width="100" height="770" as="geometry" />
        </mxCell>
        <mxCell id="7YiKMo0v-y7mLt2C8tXS-49" value="" style="html=1;points=[];perimeter=orthogonalPerimeter;rounded=0;shadow=0;comic=0;labelBackgroundColor=none;strokeWidth=1;fontFamily=Verdana;fontSize=12;align=center;" parent="7YiKMo0v-y7mLt2C8tXS-34" vertex="1">
          <mxGeometry x="45" y="560" width="10" height="90" as="geometry" />
        </mxCell>
        <mxCell id="7YiKMo0v-y7mLt2C8tXS-56" value="" style="html=1;points=[];perimeter=orthogonalPerimeter;rounded=0;shadow=0;comic=0;labelBackgroundColor=none;strokeWidth=1;fontFamily=Verdana;fontSize=12;align=center;" parent="7YiKMo0v-y7mLt2C8tXS-34" vertex="1">
          <mxGeometry x="46" y="70" width="10" height="130" as="geometry" />
        </mxCell>
        <mxCell id="7YiKMo0v-y7mLt2C8tXS-37" value="全局房间&lt;br&gt;管理服务" style="shape=note;whiteSpace=wrap;html=1;size=14;verticalAlign=top;align=left;spacingTop=-6;rounded=0;shadow=0;comic=0;labelBackgroundColor=none;strokeWidth=1;fontFamily=Verdana;fontSize=12" parent="1" vertex="1">
          <mxGeometry x="500" y="30" width="100" height="35" as="geometry" />
        </mxCell>
        <mxCell id="7YiKMo0v-y7mLt2C8tXS-41" value="" style="html=1;points=[];perimeter=orthogonalPerimeter;rounded=0;shadow=0;comic=0;labelBackgroundColor=none;strokeWidth=1;fontFamily=Verdana;fontSize=12;align=center;" parent="1" vertex="1">
          <mxGeometry x="140" y="640" width="10" height="200" as="geometry" />
        </mxCell>
        <mxCell id="7YiKMo0v-y7mLt2C8tXS-43" value="客户端发起送礼物请求" style="html=1;verticalAlign=bottom;endArrow=block;labelBackgroundColor=none;fontFamily=Verdana;fontSize=12;edgeStyle=elbowEdgeStyle;elbow=vertical;exitX=0.5;exitY=0.068;exitDx=0;exitDy=0;exitPerimeter=0;" parent="1" edge="1">
          <mxGeometry relative="1" as="geometry">
            <mxPoint x="150" y="652" as="sourcePoint" />
            <mxPoint x="549.5" y="652.0799999999999" as="targetPoint" />
            <Array as="points">
              <mxPoint x="275" y="652.08" />
              <mxPoint x="285" y="682.08" />
            </Array>
          </mxGeometry>
        </mxCell>
        <mxCell id="7YiKMo0v-y7mLt2C8tXS-47" value="服务器向PAAS server发送礼物请求" style="html=1;verticalAlign=bottom;endArrow=block;labelBackgroundColor=none;fontFamily=Verdana;fontSize=12;edgeStyle=elbowEdgeStyle;elbow=vertical;exitX=0.5;exitY=0.2;exitDx=0;exitDy=0;exitPerimeter=0;" parent="1" target="7baba1c4bc27f4b0-5" edge="1">
          <mxGeometry relative="1" as="geometry">
            <mxPoint x="360" y="770" as="sourcePoint" />
            <Array as="points">
              <mxPoint x="704" y="770" />
            </Array>
            <mxPoint x="750" y="770" as="targetPoint" />
          </mxGeometry>
        </mxCell>
        <mxCell id="7YiKMo0v-y7mLt2C8tXS-51" value="语音房间发送礼物的广播，&lt;br&gt;客户端收到广播后播放特效" style="html=1;verticalAlign=bottom;endArrow=block;labelBackgroundColor=none;fontFamily=Verdana;fontSize=12;" parent="1" edge="1">
          <mxGeometry relative="1" as="geometry">
            <mxPoint x="950" y="819" as="sourcePoint" />
            <mxPoint x="147.5" y="819" as="targetPoint" />
            <Array as="points">
              <mxPoint x="843" y="819" />
            </Array>
          </mxGeometry>
        </mxCell>
        <mxCell id="7YiKMo0v-y7mLt2C8tXS-52" value="客户端返回送礼物成功" style="html=1;verticalAlign=bottom;endArrow=block;labelBackgroundColor=none;fontFamily=Verdana;fontSize=12;" parent="1" edge="1">
          <mxGeometry relative="1" as="geometry">
            <mxPoint x="540" y="678" as="sourcePoint" />
            <mxPoint x="150" y="678" as="targetPoint" />
            <Array as="points" />
          </mxGeometry>
        </mxCell>
        <mxCell id="7YiKMo0v-y7mLt2C8tXS-54" value="返回进房间信息" style="html=1;verticalAlign=bottom;endArrow=block;labelBackgroundColor=none;fontFamily=Verdana;fontSize=12;" parent="1" edge="1">
          <mxGeometry relative="1" as="geometry">
            <mxPoint x="956" y="568" as="sourcePoint" />
            <mxPoint x="776" y="568" as="targetPoint" />
            <Array as="points" />
          </mxGeometry>
        </mxCell>
        <mxCell id="7YiKMo0v-y7mLt2C8tXS-59" value="" style="html=1;verticalAlign=bottom;endArrow=block;labelBackgroundColor=none;fontFamily=Verdana;fontSize=12;edgeStyle=elbowEdgeStyle;elbow=vertical;exitX=0.5;exitY=0.068;exitDx=0;exitDy=0;exitPerimeter=0;" parent="1" edge="1">
          <mxGeometry relative="1" as="geometry">
            <mxPoint x="355" y="179.91999999999996" as="sourcePoint" />
            <mxPoint x="540" y="182" as="targetPoint" />
            <Array as="points">
              <mxPoint x="530" y="182" />
              <mxPoint x="530" y="182" />
              <mxPoint x="530" y="182" />
              <mxPoint x="530" y="182" />
              <mxPoint x="350" y="222" />
              <mxPoint x="275" y="196.07999999999993" />
              <mxPoint x="285" y="226.07999999999993" />
            </Array>
          </mxGeometry>
        </mxCell>
        <mxCell id="7YiKMo0v-y7mLt2C8tXS-60" value="获取全局房间服务器列表" style="edgeLabel;html=1;align=center;verticalAlign=middle;resizable=0;points=[];" parent="7YiKMo0v-y7mLt2C8tXS-59" vertex="1" connectable="0">
          <mxGeometry x="-0.1276" y="1" relative="1" as="geometry">
            <mxPoint x="1" y="-9.08" as="offset" />
          </mxGeometry>
        </mxCell>
        <mxCell id="7YiKMo0v-y7mLt2C8tXS-61" value="如果有房间就即刻返回，没有就按照规则向PAAS server发起创建房间" style="html=1;verticalAlign=bottom;endArrow=block;labelBackgroundColor=none;fontFamily=Verdana;fontSize=12;edgeStyle=elbowEdgeStyle;elbow=vertical;exitX=1.1;exitY=0.846;exitDx=0;exitDy=0;exitPerimeter=0;" parent="1" edge="1">
          <mxGeometry relative="1" as="geometry">
            <mxPoint x="559" y="194.98000000000002" as="sourcePoint" />
            <Array as="points" />
            <mxPoint x="951.5" y="194" as="targetPoint" />
          </mxGeometry>
        </mxCell>
        <mxCell id="7YiKMo0v-y7mLt2C8tXS-62" value="返回创建房间成功" style="html=1;verticalAlign=bottom;endArrow=block;labelBackgroundColor=none;fontFamily=Verdana;fontSize=12;" parent="1" edge="1">
          <mxGeometry relative="1" as="geometry">
            <mxPoint x="948" y="222" as="sourcePoint" />
            <mxPoint x="560" y="222" as="targetPoint" />
            <Array as="points">
              <mxPoint x="840" y="222" />
            </Array>
          </mxGeometry>
        </mxCell>
        <mxCell id="7YiKMo0v-y7mLt2C8tXS-63" value="返回全局房间服务器列表" style="html=1;verticalAlign=bottom;endArrow=block;labelBackgroundColor=none;fontFamily=Verdana;fontSize=12;exitX=0.2;exitY=0.585;exitDx=0;exitDy=0;exitPerimeter=0;" parent="1" edge="1">
          <mxGeometry relative="1" as="geometry">
            <mxPoint x="347" y="280" as="sourcePoint" />
            <mxPoint x="150" y="280" as="targetPoint" />
            <Array as="points" />
          </mxGeometry>
        </mxCell>
        <mxCell id="7YiKMo0v-y7mLt2C8tXS-65" value="服务器验证是否可以送礼物，&lt;br&gt;并扣除相应的游戏币，向PASS&lt;br&gt;服务器发起送礼物请求" style="html=1;verticalAlign=bottom;endArrow=block;labelBackgroundColor=none;fontFamily=Verdana;fontSize=12;" parent="1" edge="1">
          <mxGeometry relative="1" as="geometry">
            <mxPoint x="540" y="729" as="sourcePoint" />
            <mxPoint x="360" y="729" as="targetPoint" />
            <Array as="points" />
          </mxGeometry>
        </mxCell>
        <mxCell id="7YiKMo0v-y7mLt2C8tXS-66" value="返回已有全局房间服务器列表" style="html=1;verticalAlign=bottom;endArrow=block;labelBackgroundColor=none;fontFamily=Verdana;fontSize=12;" parent="1" edge="1">
          <mxGeometry relative="1" as="geometry">
            <mxPoint x="540" y="247" as="sourcePoint" />
            <mxPoint x="360" y="247" as="targetPoint" />
            <Array as="points" />
          </mxGeometry>
        </mxCell>
        <mxCell id="7baba1c4bc27f4b0-13" value="" style="html=1;points=[];perimeter=orthogonalPerimeter;rounded=0;shadow=0;comic=0;labelBackgroundColor=none;strokeWidth=1;fontFamily=Verdana;fontSize=12;align=center;" parent="1" vertex="1">
          <mxGeometry x="350" y="155" width="10" height="190" as="geometry" />
        </mxCell>
        <mxCell id="V6cwjawZBJKuY5wKBzn6-1" value="" style="html=1;verticalAlign=bottom;endArrow=block;labelBackgroundColor=none;fontFamily=Verdana;fontSize=12;edgeStyle=elbowEdgeStyle;elbow=vertical;exitX=0.5;exitY=0.068;exitDx=0;exitDy=0;exitPerimeter=0;" edge="1" parent="1">
          <mxGeometry relative="1" as="geometry">
            <mxPoint x="150" y="183" as="sourcePoint" />
            <mxPoint x="350" y="183" as="targetPoint" />
            <Array as="points" />
          </mxGeometry>
        </mxCell>
        <mxCell id="V6cwjawZBJKuY5wKBzn6-2" value="客户端获取全局房间服务器列表" style="edgeLabel;html=1;align=center;verticalAlign=middle;resizable=0;points=[];" vertex="1" connectable="0" parent="V6cwjawZBJKuY5wKBzn6-1">
          <mxGeometry x="-0.1276" y="1" relative="1" as="geometry">
            <mxPoint x="1" y="-11.08" as="offset" />
          </mxGeometry>
        </mxCell>
        <mxCell id="V6cwjawZBJKuY5wKBzn6-6" value="SDK向PAAS发用户&lt;br&gt;进入房间的消息" style="html=1;verticalAlign=bottom;endArrow=block;labelBackgroundColor=none;fontFamily=Verdana;fontSize=12;edgeStyle=elbowEdgeStyle;elbow=vertical;entryX=0;entryY=0.25;entryDx=0;entryDy=0;entryPerimeter=0;" edge="1" parent="1">
          <mxGeometry relative="1" as="geometry">
            <mxPoint x="786" y="532" as="sourcePoint" />
            <Array as="points">
              <mxPoint x="960" y="532" />
            </Array>
            <mxPoint x="966" y="532" as="targetPoint" />
          </mxGeometry>
        </mxCell>
        <mxCell id="V6cwjawZBJKuY5wKBzn6-7" value="同意或者拒绝进入全局房间" style="html=1;verticalAlign=bottom;endArrow=block;labelBackgroundColor=none;fontFamily=Verdana;fontSize=12;edgeStyle=elbowEdgeStyle;elbow=vertical;" edge="1" parent="1">
          <mxGeometry x="0.0244" relative="1" as="geometry">
            <mxPoint x="950" y="428" as="sourcePoint" />
            <Array as="points">
              <mxPoint x="810" y="428" />
              <mxPoint x="790" y="418" />
              <mxPoint x="780" y="408" />
              <mxPoint x="790" y="418" />
              <mxPoint x="780" y="418" />
              <mxPoint x="830" y="418" />
              <mxPoint x="810" y="398" />
              <mxPoint x="944" y="428" />
            </Array>
            <mxPoint x="770" y="428" as="targetPoint" />
            <mxPoint x="1" as="offset" />
          </mxGeometry>
        </mxCell>
      </root>
    </mxGraphModel>
  </diagram>
</mxfile>
